<svg width="43" height="41" viewBox="0 0 43 41" fill="none" xmlns="http://www.w3.org/2000/svg">
<path d="M15.9858 40.1962C17.0164 40.1962 17.8519 39.3608 17.8519 38.3302C17.8519 37.2996 17.0164 36.4641 15.9858 36.4641C14.9552 36.4641 14.1198 37.2996 14.1198 38.3302C14.1198 39.3608 14.9552 40.1962 15.9858 40.1962Z" stroke="white" stroke-linecap="round" stroke-linejoin="round"/>
<path d="M36.5127 40.1962C37.5433 40.1962 38.3787 39.3608 38.3787 38.3302C38.3787 37.2996 37.5433 36.4641 36.5127 36.4641C35.4821 36.4641 34.6466 37.2996 34.6466 38.3302C34.6466 39.3608 35.4821 40.1962 36.5127 40.1962Z" stroke="white" stroke-linecap="round" stroke-linejoin="round"/>
<path d="M1.05713 1.00854H8.52139L13.5225 25.9952C13.6931 26.8543 14.1605 27.626 14.8428 28.1753C15.5251 28.7245 16.3788 29.0163 17.2546 28.9995H35.3927C36.2685 29.0163 37.1222 28.7245 37.8046 28.1753C38.4869 27.626 38.9542 26.8543 39.1249 25.9952L42.1106 10.3389H10.3875" stroke="white" stroke-linecap="round" stroke-linejoin="round"/>
</svg>
