<svg width="1440" height="407" viewBox="0 0 1440 407" fill="none" xmlns="http://www.w3.org/2000/svg">
<g opacity="0.05">
<path d="M16.2808 23.0952C16.2808 11.8813 25.3714 2.79065 36.5853 2.79065H115.219C126.12 2.79065 132.013 15.5661 124.936 23.858C124.474 24.3998 123.967 24.9019 123.421 25.3591L122.74 25.9294C119.134 28.9493 114.701 30.8113 110.02 31.272L98.6962 32.3864H78.873C69.9027 32.3864 61.1674 35.254 53.9424 40.5705C51.8573 42.1048 49.9183 43.8283 48.15 45.7191L42.729 51.5159C42.1332 52.153 41.5961 52.8426 41.1243 53.5763C33.8405 64.9029 16.2808 59.7441 16.2808 46.2776V23.0952Z" stroke="white"/>
<path d="M127.719 70.8156C127.719 82.0295 118.629 91.1201 107.415 91.1201H28.7808C17.8796 91.1201 11.9872 78.3447 19.0639 70.0527C19.5262 69.511 20.033 69.0089 20.579 68.5517L21.26 67.9813C24.8662 64.9614 29.2993 63.0995 33.9803 62.6388L45.3038 61.5244H65.127C74.0973 61.5244 82.8326 58.6568 90.0576 53.3403C92.1427 51.806 94.0817 50.0824 95.85 48.1916L101.271 42.3948C101.867 41.7577 102.404 41.0682 102.876 40.3345C110.16 29.0079 127.719 34.1667 127.719 47.6331V70.8156Z" stroke="white"/>
<path d="M160.281 23.0952C160.281 11.8813 169.371 2.79065 180.585 2.79065H259.219C270.12 2.79065 276.013 15.5661 268.936 23.858C268.474 24.3998 267.967 24.9019 267.421 25.3591L266.74 25.9294C263.134 28.9493 258.701 30.8113 254.02 31.272L242.696 32.3864H222.873C213.903 32.3864 205.167 35.254 197.942 40.5705C195.857 42.1048 193.918 43.8283 192.15 45.7191L186.729 51.5159C186.133 52.153 185.596 52.8426 185.124 53.5763C177.84 64.9029 160.281 59.7441 160.281 46.2776V23.0952Z" stroke="white"/>
<path d="M271.719 70.8156C271.719 82.0295 262.629 91.1201 251.415 91.1201H172.781C161.88 91.1201 155.987 78.3447 163.064 70.0527C163.526 69.511 164.033 69.0089 164.579 68.5517L165.26 67.9813C168.866 64.9614 173.299 63.0995 177.98 62.6388L189.304 61.5244H209.127C218.097 61.5244 226.833 58.6568 234.058 53.3403C236.143 51.806 238.082 50.0824 239.85 48.1916L245.271 42.3948C245.867 41.7577 246.404 41.0682 246.876 40.3345C254.16 29.0079 271.719 34.1667 271.719 47.6331V70.8156Z" stroke="white"/>
<path d="M304.281 23.0952C304.281 11.8813 313.371 2.79065 324.585 2.79065H403.219C414.12 2.79065 420.013 15.5661 412.936 23.858C412.474 24.3998 411.967 24.9019 411.421 25.3591L410.74 25.9294C407.134 28.9493 402.701 30.8113 398.02 31.272L386.696 32.3864H366.873C357.903 32.3864 349.167 35.254 341.942 40.5705C339.857 42.1048 337.918 43.8283 336.15 45.7191L330.729 51.5159C330.133 52.153 329.596 52.8426 329.124 53.5763C321.84 64.9029 304.281 59.7441 304.281 46.2776V23.0952Z" stroke="white"/>
<path d="M415.719 70.8156C415.719 82.0295 406.629 91.1201 395.415 91.1201H316.781C305.88 91.1201 299.987 78.3447 307.064 70.0527C307.526 69.511 308.033 69.0089 308.579 68.5517L309.26 67.9813C312.866 64.9614 317.299 63.0995 321.98 62.6388L333.304 61.5244H353.127C362.097 61.5244 370.833 58.6568 378.058 53.3403C380.143 51.806 382.082 50.0824 383.85 48.1916L389.271 42.3948C389.867 41.7577 390.404 41.0682 390.876 40.3345C398.16 29.0079 415.719 34.1667 415.719 47.6331V70.8156Z" stroke="white"/>
<path d="M448.281 23.0952C448.281 11.8813 457.371 2.79065 468.585 2.79065H547.219C558.12 2.79065 564.013 15.5661 556.936 23.858C556.474 24.3998 555.967 24.9019 555.421 25.3591L554.74 25.9294C551.134 28.9493 546.701 30.8113 542.02 31.272L530.696 32.3864H510.873C501.903 32.3864 493.167 35.254 485.942 40.5705C483.857 42.1048 481.918 43.8283 480.15 45.7191L474.729 51.5159C474.133 52.153 473.596 52.8426 473.124 53.5763C465.84 64.9029 448.281 59.7441 448.281 46.2776V23.0952Z" stroke="white"/>
<path d="M559.719 70.8156C559.719 82.0295 550.629 91.1201 539.415 91.1201H460.781C449.88 91.1201 443.987 78.3447 451.064 70.0527C451.526 69.511 452.033 69.0089 452.579 68.5517L453.26 67.9813C456.866 64.9614 461.299 63.0995 465.98 62.6388L477.304 61.5244H497.127C506.097 61.5244 514.833 58.6568 522.058 53.3403C524.143 51.806 526.082 50.0824 527.85 48.1916L533.271 42.3948C533.867 41.7577 534.404 41.0682 534.876 40.3345C542.16 29.0079 559.719 34.1667 559.719 47.6331V70.8156Z" stroke="white"/>
<path d="M592.281 23.0952C592.281 11.8813 601.371 2.79065 612.585 2.79065H691.219C702.12 2.79065 708.013 15.5661 700.936 23.858C700.474 24.3998 699.967 24.9019 699.421 25.3591L698.74 25.9294C695.134 28.9493 690.701 30.8113 686.02 31.272L674.696 32.3864H654.873C645.903 32.3864 637.167 35.254 629.942 40.5705C627.857 42.1048 625.918 43.8283 624.15 45.7191L618.729 51.5159C618.133 52.153 617.596 52.8426 617.124 53.5763C609.84 64.9029 592.281 59.7441 592.281 46.2776V23.0952Z" stroke="white"/>
<path d="M703.719 70.8156C703.719 82.0295 694.629 91.1201 683.415 91.1201H604.781C593.88 91.1201 587.987 78.3447 595.064 70.0527C595.526 69.511 596.033 69.0089 596.579 68.5517L597.26 67.9813C600.866 64.9614 605.299 63.0995 609.98 62.6388L621.304 61.5244H641.127C650.097 61.5244 658.833 58.6568 666.058 53.3403C668.143 51.806 670.082 50.0824 671.85 48.1916L677.271 42.3948C677.867 41.7577 678.404 41.0682 678.876 40.3345C686.16 29.0079 703.719 34.1667 703.719 47.6331V70.8156Z" stroke="white"/>
<path d="M736.281 23.0952C736.281 11.8813 745.371 2.79065 756.585 2.79065H835.219C846.12 2.79065 852.013 15.5661 844.936 23.858C844.474 24.3998 843.967 24.9019 843.421 25.3591L842.74 25.9294C839.134 28.9493 834.701 30.8113 830.02 31.272L818.696 32.3864H798.873C789.903 32.3864 781.167 35.254 773.942 40.5705C771.857 42.1048 769.918 43.8283 768.15 45.7191L762.729 51.5159C762.133 52.153 761.596 52.8426 761.124 53.5763C753.84 64.9029 736.281 59.7441 736.281 46.2776V23.0952Z" stroke="white"/>
<path d="M847.719 70.8156C847.719 82.0295 838.629 91.1201 827.415 91.1201H748.781C737.88 91.1201 731.987 78.3447 739.064 70.0527C739.526 69.511 740.033 69.0089 740.579 68.5517L741.26 67.9813C744.866 64.9614 749.299 63.0995 753.98 62.6388L765.304 61.5244H785.127C794.097 61.5244 802.833 58.6568 810.058 53.3403C812.143 51.806 814.082 50.0824 815.85 48.1916L821.271 42.3948C821.867 41.7577 822.404 41.0682 822.876 40.3345C830.16 29.0079 847.719 34.1667 847.719 47.6331V70.8156Z" stroke="white"/>
<path d="M880.281 23.0952C880.281 11.8813 889.371 2.79065 900.585 2.79065H979.219C990.12 2.79065 996.013 15.5661 988.936 23.858C988.474 24.3998 987.967 24.9019 987.421 25.3591L986.74 25.9294C983.134 28.9493 978.701 30.8113 974.02 31.272L962.696 32.3864H942.873C933.903 32.3864 925.167 35.254 917.942 40.5705C915.857 42.1048 913.918 43.8283 912.15 45.7191L906.729 51.5159C906.133 52.153 905.596 52.8426 905.124 53.5763C897.84 64.9029 880.281 59.7441 880.281 46.2776V23.0952Z" stroke="white"/>
<path d="M991.719 70.8156C991.719 82.0295 982.629 91.1201 971.415 91.1201H892.781C881.88 91.1201 875.987 78.3447 883.064 70.0527C883.526 69.511 884.033 69.0089 884.579 68.5517L885.26 67.9813C888.866 64.9614 893.299 63.0995 897.98 62.6388L909.304 61.5244H929.127C938.097 61.5244 946.833 58.6568 954.058 53.3403C956.143 51.806 958.082 50.0824 959.85 48.1916L965.271 42.3948C965.867 41.7577 966.404 41.0682 966.876 40.3345C974.16 29.0079 991.719 34.1667 991.719 47.6331V70.8156Z" stroke="white"/>
<path d="M1024.28 23.0952C1024.28 11.8813 1033.37 2.79065 1044.59 2.79065H1123.22C1134.12 2.79065 1140.01 15.5661 1132.94 23.858C1132.47 24.3998 1131.97 24.9019 1131.42 25.3591L1130.74 25.9294C1127.13 28.9493 1122.7 30.8113 1118.02 31.272L1106.7 32.3864H1086.87C1077.9 32.3864 1069.17 35.254 1061.94 40.5705C1059.86 42.1048 1057.92 43.8283 1056.15 45.7191L1050.73 51.5159C1050.13 52.153 1049.6 52.8426 1049.12 53.5763C1041.84 64.9029 1024.28 59.7441 1024.28 46.2776V23.0952Z" stroke="white"/>
<path d="M1135.72 70.8156C1135.72 82.0295 1126.63 91.1201 1115.41 91.1201H1036.78C1025.88 91.1201 1019.99 78.3447 1027.06 70.0527C1027.53 69.511 1028.03 69.0089 1028.58 68.5517L1029.26 67.9813C1032.87 64.9614 1037.3 63.0995 1041.98 62.6388L1053.3 61.5244H1073.13C1082.1 61.5244 1090.83 58.6568 1098.06 53.3403C1100.14 51.806 1102.08 50.0824 1103.85 48.1916L1109.27 42.3948C1109.87 41.7577 1110.4 41.0682 1110.88 40.3345C1118.16 29.0079 1135.72 34.1667 1135.72 47.6331V70.8156Z" stroke="white"/>
<path d="M1168.28 23.0952C1168.28 11.8813 1177.37 2.79065 1188.59 2.79065H1267.22C1278.12 2.79065 1284.01 15.5661 1276.94 23.858C1276.47 24.3998 1275.97 24.9019 1275.42 25.3591L1274.74 25.9294C1271.13 28.9493 1266.7 30.8113 1262.02 31.272L1250.7 32.3864H1230.87C1221.9 32.3864 1213.17 35.254 1205.94 40.5705C1203.86 42.1048 1201.92 43.8283 1200.15 45.7191L1194.73 51.5159C1194.13 52.153 1193.6 52.8426 1193.12 53.5763C1185.84 64.9029 1168.28 59.7441 1168.28 46.2776V23.0952Z" stroke="white"/>
<path d="M1279.72 70.8156C1279.72 82.0295 1270.63 91.1201 1259.41 91.1201H1180.78C1169.88 91.1201 1163.99 78.3447 1171.06 70.0527C1171.53 69.511 1172.03 69.0089 1172.58 68.5517L1173.26 67.9813C1176.87 64.9614 1181.3 63.0995 1185.98 62.6388L1197.3 61.5244H1217.13C1226.1 61.5244 1234.83 58.6568 1242.06 53.3403C1244.14 51.806 1246.08 50.0824 1247.85 48.1916L1253.27 42.3948C1253.87 41.7577 1254.4 41.0682 1254.88 40.3345C1262.16 29.0079 1279.72 34.1667 1279.72 47.6331V70.8156Z" stroke="white"/>
<path d="M1312.28 23.0952C1312.28 11.8813 1321.37 2.79065 1332.59 2.79065H1411.22C1422.12 2.79065 1428.01 15.5661 1420.94 23.858C1420.47 24.3998 1419.97 24.9019 1419.42 25.3591L1418.74 25.9294C1415.13 28.9493 1410.7 30.8113 1406.02 31.272L1394.7 32.3864H1374.87C1365.9 32.3864 1357.17 35.254 1349.94 40.5705C1347.86 42.1048 1345.92 43.8283 1344.15 45.7191L1338.73 51.5159C1338.13 52.153 1337.6 52.8426 1337.12 53.5763C1329.84 64.9029 1312.28 59.7441 1312.28 46.2776V23.0952Z" stroke="white"/>
<path d="M1423.72 70.8156C1423.72 82.0295 1414.63 91.1201 1403.41 91.1201H1324.78C1313.88 91.1201 1307.99 78.3447 1315.06 70.0527C1315.53 69.511 1316.03 69.0089 1316.58 68.5517L1317.26 67.9813C1320.87 64.9614 1325.3 63.0995 1329.98 62.6388L1341.3 61.5244H1361.13C1370.1 61.5244 1378.83 58.6568 1386.06 53.3403C1388.14 51.806 1390.08 50.0824 1391.85 48.1916L1397.27 42.3948C1397.87 41.7577 1398.4 41.0682 1398.88 40.3345C1406.16 29.0079 1423.72 34.1667 1423.72 47.6331V70.8156Z" stroke="white"/>
<path d="M16.2808 128.459C16.2808 117.245 25.3714 108.154 36.5853 108.154H115.219C126.12 108.154 132.013 120.93 124.936 129.221C124.474 129.763 123.967 130.265 123.421 130.723L122.74 131.293C119.134 134.313 114.701 136.175 110.02 136.635L98.6962 137.75H78.873C69.9027 137.75 61.1674 140.617 53.9424 145.934C51.8573 147.468 49.9183 149.192 48.15 151.083L42.729 156.879C42.1332 157.516 41.5961 158.206 41.1243 158.94C33.8405 170.266 16.2808 165.108 16.2808 151.641V128.459Z" stroke="white"/>
<path d="M127.719 176.179C127.719 187.393 118.629 196.483 107.415 196.483H28.7808C17.8796 196.483 11.9872 183.708 19.0639 175.416C19.5262 174.874 20.033 174.372 20.579 173.915L21.26 173.345C24.8662 170.325 29.2993 168.463 33.9803 168.002L45.3038 166.888H65.127C74.0973 166.888 82.8326 164.02 90.0576 158.704C92.1427 157.169 94.0817 155.446 95.85 153.555L101.271 147.758C101.867 147.121 102.404 146.431 102.876 145.698C110.16 134.371 127.719 139.53 127.719 152.996V176.179Z" stroke="white"/>
<path d="M160.281 128.459C160.281 117.245 169.371 108.154 180.585 108.154H259.219C270.12 108.154 276.013 120.93 268.936 129.221C268.474 129.763 267.967 130.265 267.421 130.723L266.74 131.293C263.134 134.313 258.701 136.175 254.02 136.635L242.696 137.75H222.873C213.903 137.75 205.167 140.617 197.942 145.934C195.857 147.468 193.918 149.192 192.15 151.083L186.729 156.879C186.133 157.516 185.596 158.206 185.124 158.94C177.84 170.266 160.281 165.108 160.281 151.641V128.459Z" stroke="white"/>
<path d="M271.719 176.179C271.719 187.393 262.629 196.483 251.415 196.483H172.781C161.88 196.483 155.987 183.708 163.064 175.416C163.526 174.874 164.033 174.372 164.579 173.915L165.26 173.345C168.866 170.325 173.299 168.463 177.98 168.002L189.304 166.888H209.127C218.097 166.888 226.833 164.02 234.058 158.704C236.143 157.169 238.082 155.446 239.85 153.555L245.271 147.758C245.867 147.121 246.404 146.431 246.876 145.698C254.16 134.371 271.719 139.53 271.719 152.996V176.179Z" stroke="white"/>
<path d="M304.281 128.459C304.281 117.245 313.371 108.154 324.585 108.154H403.219C414.12 108.154 420.013 120.93 412.936 129.221C412.474 129.763 411.967 130.265 411.421 130.723L410.74 131.293C407.134 134.313 402.701 136.175 398.02 136.635L386.696 137.75H366.873C357.903 137.75 349.167 140.617 341.942 145.934C339.857 147.468 337.918 149.192 336.15 151.083L330.729 156.879C330.133 157.516 329.596 158.206 329.124 158.94C321.84 170.266 304.281 165.108 304.281 151.641V128.459Z" stroke="white"/>
<path d="M415.719 176.179C415.719 187.393 406.629 196.483 395.415 196.483H316.781C305.88 196.483 299.987 183.708 307.064 175.416C307.526 174.874 308.033 174.372 308.579 173.915L309.26 173.345C312.866 170.325 317.299 168.463 321.98 168.002L333.304 166.888H353.127C362.097 166.888 370.833 164.02 378.058 158.704C380.143 157.169 382.082 155.446 383.85 153.555L389.271 147.758C389.867 147.121 390.404 146.431 390.876 145.698C398.16 134.371 415.719 139.53 415.719 152.996V176.179Z" stroke="white"/>
<path d="M448.281 128.459C448.281 117.245 457.371 108.154 468.585 108.154H547.219C558.12 108.154 564.013 120.93 556.936 129.221C556.474 129.763 555.967 130.265 555.421 130.723L554.74 131.293C551.134 134.313 546.701 136.175 542.02 136.635L530.696 137.75H510.873C501.903 137.75 493.167 140.617 485.942 145.934C483.857 147.468 481.918 149.192 480.15 151.083L474.729 156.879C474.133 157.516 473.596 158.206 473.124 158.94C465.84 170.266 448.281 165.108 448.281 151.641V128.459Z" stroke="white"/>
<path d="M559.719 176.179C559.719 187.393 550.629 196.483 539.415 196.483H460.781C449.88 196.483 443.987 183.708 451.064 175.416C451.526 174.874 452.033 174.372 452.579 173.915L453.26 173.345C456.866 170.325 461.299 168.463 465.98 168.002L477.304 166.888H497.127C506.097 166.888 514.833 164.02 522.058 158.704C524.143 157.169 526.082 155.446 527.85 153.555L533.271 147.758C533.867 147.121 534.404 146.431 534.876 145.698C542.16 134.371 559.719 139.53 559.719 152.996V176.179Z" stroke="white"/>
<path d="M592.281 128.459C592.281 117.245 601.371 108.154 612.585 108.154H691.219C702.12 108.154 708.013 120.93 700.936 129.221C700.474 129.763 699.967 130.265 699.421 130.723L698.74 131.293C695.134 134.313 690.701 136.175 686.02 136.635L674.696 137.75H654.873C645.903 137.75 637.167 140.617 629.942 145.934C627.857 147.468 625.918 149.192 624.15 151.083L618.729 156.879C618.133 157.516 617.596 158.206 617.124 158.94C609.84 170.266 592.281 165.108 592.281 151.641V128.459Z" stroke="white"/>
<path d="M703.719 176.179C703.719 187.393 694.629 196.483 683.415 196.483H604.781C593.88 196.483 587.987 183.708 595.064 175.416C595.526 174.874 596.033 174.372 596.579 173.915L597.26 173.345C600.866 170.325 605.299 168.463 609.98 168.002L621.304 166.888H641.127C650.097 166.888 658.833 164.02 666.058 158.704C668.143 157.169 670.082 155.446 671.85 153.555L677.271 147.758C677.867 147.121 678.404 146.431 678.876 145.698C686.16 134.371 703.719 139.53 703.719 152.996V176.179Z" stroke="white"/>
<path d="M736.281 128.459C736.281 117.245 745.371 108.154 756.585 108.154H835.219C846.12 108.154 852.013 120.93 844.936 129.221C844.474 129.763 843.967 130.265 843.421 130.723L842.74 131.293C839.134 134.313 834.701 136.175 830.02 136.635L818.696 137.75H798.873C789.903 137.75 781.167 140.617 773.942 145.934C771.857 147.468 769.918 149.192 768.15 151.083L762.729 156.879C762.133 157.516 761.596 158.206 761.124 158.94C753.84 170.266 736.281 165.108 736.281 151.641V128.459Z" stroke="white"/>
<path d="M847.719 176.179C847.719 187.393 838.629 196.483 827.415 196.483H748.781C737.88 196.483 731.987 183.708 739.064 175.416C739.526 174.874 740.033 174.372 740.579 173.915L741.26 173.345C744.866 170.325 749.299 168.463 753.98 168.002L765.304 166.888H785.127C794.097 166.888 802.833 164.02 810.058 158.704C812.143 157.169 814.082 155.446 815.85 153.555L821.271 147.758C821.867 147.121 822.404 146.431 822.876 145.698C830.16 134.371 847.719 139.53 847.719 152.996V176.179Z" stroke="white"/>
<path d="M880.281 128.459C880.281 117.245 889.371 108.154 900.585 108.154H979.219C990.12 108.154 996.013 120.93 988.936 129.221C988.474 129.763 987.967 130.265 987.421 130.723L986.74 131.293C983.134 134.313 978.701 136.175 974.02 136.635L962.696 137.75H942.873C933.903 137.75 925.167 140.617 917.942 145.934C915.857 147.468 913.918 149.192 912.15 151.083L906.729 156.879C906.133 157.516 905.596 158.206 905.124 158.94C897.84 170.266 880.281 165.108 880.281 151.641V128.459Z" stroke="white"/>
<path d="M991.719 176.179C991.719 187.393 982.629 196.483 971.415 196.483H892.781C881.88 196.483 875.987 183.708 883.064 175.416C883.526 174.874 884.033 174.372 884.579 173.915L885.26 173.345C888.866 170.325 893.299 168.463 897.98 168.002L909.304 166.888H929.127C938.097 166.888 946.833 164.02 954.058 158.704C956.143 157.169 958.082 155.446 959.85 153.555L965.271 147.758C965.867 147.121 966.404 146.431 966.876 145.698C974.16 134.371 991.719 139.53 991.719 152.996V176.179Z" stroke="white"/>
<path d="M1024.28 128.459C1024.28 117.245 1033.37 108.154 1044.59 108.154H1123.22C1134.12 108.154 1140.01 120.93 1132.94 129.221C1132.47 129.763 1131.97 130.265 1131.42 130.723L1130.74 131.293C1127.13 134.313 1122.7 136.175 1118.02 136.635L1106.7 137.75H1086.87C1077.9 137.75 1069.17 140.617 1061.94 145.934C1059.86 147.468 1057.92 149.192 1056.15 151.083L1050.73 156.879C1050.13 157.516 1049.6 158.206 1049.12 158.94C1041.84 170.266 1024.28 165.108 1024.28 151.641V128.459Z" stroke="white"/>
<path d="M1135.72 176.179C1135.72 187.393 1126.63 196.483 1115.41 196.483H1036.78C1025.88 196.483 1019.99 183.708 1027.06 175.416C1027.53 174.874 1028.03 174.372 1028.58 173.915L1029.26 173.345C1032.87 170.325 1037.3 168.463 1041.98 168.002L1053.3 166.888H1073.13C1082.1 166.888 1090.83 164.02 1098.06 158.704C1100.14 157.169 1102.08 155.446 1103.85 153.555L1109.27 147.758C1109.87 147.121 1110.4 146.431 1110.88 145.698C1118.16 134.371 1135.72 139.53 1135.72 152.996V176.179Z" stroke="white"/>
<path d="M1168.28 128.459C1168.28 117.245 1177.37 108.154 1188.59 108.154H1267.22C1278.12 108.154 1284.01 120.93 1276.94 129.221C1276.47 129.763 1275.97 130.265 1275.42 130.723L1274.74 131.293C1271.13 134.313 1266.7 136.175 1262.02 136.635L1250.7 137.75H1230.87C1221.9 137.75 1213.17 140.617 1205.94 145.934C1203.86 147.468 1201.92 149.192 1200.15 151.083L1194.73 156.879C1194.13 157.516 1193.6 158.206 1193.12 158.94C1185.84 170.266 1168.28 165.108 1168.28 151.641V128.459Z" stroke="white"/>
<path d="M1279.72 176.179C1279.72 187.393 1270.63 196.483 1259.41 196.483H1180.78C1169.88 196.483 1163.99 183.708 1171.06 175.416C1171.53 174.874 1172.03 174.372 1172.58 173.915L1173.26 173.345C1176.87 170.325 1181.3 168.463 1185.98 168.002L1197.3 166.888H1217.13C1226.1 166.888 1234.83 164.02 1242.06 158.704C1244.14 157.169 1246.08 155.446 1247.85 153.555L1253.27 147.758C1253.87 147.121 1254.4 146.431 1254.88 145.698C1262.16 134.371 1279.72 139.53 1279.72 152.996V176.179Z" stroke="white"/>
<path d="M1312.28 128.459C1312.28 117.245 1321.37 108.154 1332.59 108.154H1411.22C1422.12 108.154 1428.01 120.93 1420.94 129.221C1420.47 129.763 1419.97 130.265 1419.42 130.723L1418.74 131.293C1415.13 134.313 1410.7 136.175 1406.02 136.635L1394.7 137.75H1374.87C1365.9 137.75 1357.17 140.617 1349.94 145.934C1347.86 147.468 1345.92 149.192 1344.15 151.083L1338.73 156.879C1338.13 157.516 1337.6 158.206 1337.12 158.94C1329.84 170.266 1312.28 165.108 1312.28 151.641V128.459Z" stroke="white"/>
<path d="M1423.72 176.179C1423.72 187.393 1414.63 196.483 1403.41 196.483H1324.78C1313.88 196.483 1307.99 183.708 1315.06 175.416C1315.53 174.874 1316.03 174.372 1316.58 173.915L1317.26 173.345C1320.87 170.325 1325.3 168.463 1329.98 168.002L1341.3 166.888H1361.13C1370.1 166.888 1378.83 164.02 1386.06 158.704C1388.14 157.169 1390.08 155.446 1391.85 153.555L1397.27 147.758C1397.87 147.121 1398.4 146.431 1398.88 145.698C1406.16 134.371 1423.72 139.53 1423.72 152.996V176.179Z" stroke="white"/>
<path d="M16.2808 233.822C16.2808 222.608 25.3714 213.517 36.5853 213.517H115.219C126.12 213.517 132.013 226.293 124.936 234.585C124.474 235.126 123.967 235.629 123.421 236.086L122.74 236.656C119.134 239.676 114.701 241.538 110.02 241.999L98.6962 243.113H78.873C69.9027 243.113 61.1674 245.981 53.9424 251.297C51.8573 252.831 49.9183 254.555 48.15 256.446L42.729 262.243C42.1332 262.88 41.5961 263.569 41.1243 264.303C33.8405 275.63 16.2808 270.471 16.2808 257.004V233.822Z" stroke="white"/>
<path d="M127.719 281.542C127.719 292.756 118.629 301.847 107.415 301.847H28.7808C17.8796 301.847 11.9872 289.071 19.0639 280.78C19.5262 280.238 20.033 279.736 20.579 279.278L21.26 278.708C24.8662 275.688 29.2993 273.826 33.9803 273.366L45.3038 272.251H65.127C74.0973 272.251 82.8326 269.384 90.0576 264.067C92.1427 262.533 94.0817 260.809 95.85 258.918L101.271 253.122C101.867 252.485 102.404 251.795 102.876 251.061C110.16 239.735 127.719 244.893 127.719 258.36V281.542Z" stroke="white"/>
<path d="M160.281 233.822C160.281 222.608 169.371 213.517 180.585 213.517H259.219C270.12 213.517 276.013 226.293 268.936 234.585C268.474 235.126 267.967 235.629 267.421 236.086L266.74 236.656C263.134 239.676 258.701 241.538 254.02 241.999L242.696 243.113H222.873C213.903 243.113 205.167 245.981 197.942 251.297C195.857 252.831 193.918 254.555 192.15 256.446L186.729 262.243C186.133 262.88 185.596 263.569 185.124 264.303C177.84 275.63 160.281 270.471 160.281 257.004V233.822Z" stroke="white"/>
<path d="M271.719 281.542C271.719 292.756 262.629 301.847 251.415 301.847H172.781C161.88 301.847 155.987 289.071 163.064 280.78C163.526 280.238 164.033 279.736 164.579 279.278L165.26 278.708C168.866 275.688 173.299 273.826 177.98 273.366L189.304 272.251H209.127C218.097 272.251 226.833 269.384 234.058 264.067C236.143 262.533 238.082 260.809 239.85 258.918L245.271 253.122C245.867 252.485 246.404 251.795 246.876 251.061C254.16 239.735 271.719 244.893 271.719 258.36V281.542Z" stroke="white"/>
<path d="M304.281 233.822C304.281 222.608 313.371 213.517 324.585 213.517H403.219C414.12 213.517 420.013 226.293 412.936 234.585C412.474 235.126 411.967 235.629 411.421 236.086L410.74 236.656C407.134 239.676 402.701 241.538 398.02 241.999L386.696 243.113H366.873C357.903 243.113 349.167 245.981 341.942 251.297C339.857 252.831 337.918 254.555 336.15 256.446L330.729 262.243C330.133 262.88 329.596 263.569 329.124 264.303C321.84 275.63 304.281 270.471 304.281 257.004V233.822Z" stroke="white"/>
<path d="M415.719 281.542C415.719 292.756 406.629 301.847 395.415 301.847H316.781C305.88 301.847 299.987 289.071 307.064 280.78C307.526 280.238 308.033 279.736 308.579 279.278L309.26 278.708C312.866 275.688 317.299 273.826 321.98 273.366L333.304 272.251H353.127C362.097 272.251 370.833 269.384 378.058 264.067C380.143 262.533 382.082 260.809 383.85 258.918L389.271 253.122C389.867 252.485 390.404 251.795 390.876 251.061C398.16 239.735 415.719 244.893 415.719 258.36V281.542Z" stroke="white"/>
<path d="M448.281 233.822C448.281 222.608 457.371 213.517 468.585 213.517H547.219C558.12 213.517 564.013 226.293 556.936 234.585C556.474 235.126 555.967 235.629 555.421 236.086L554.74 236.656C551.134 239.676 546.701 241.538 542.02 241.999L530.696 243.113H510.873C501.903 243.113 493.167 245.981 485.942 251.297C483.857 252.831 481.918 254.555 480.15 256.446L474.729 262.243C474.133 262.88 473.596 263.569 473.124 264.303C465.84 275.63 448.281 270.471 448.281 257.004V233.822Z" stroke="white"/>
<path d="M559.719 281.542C559.719 292.756 550.629 301.847 539.415 301.847H460.781C449.88 301.847 443.987 289.071 451.064 280.78C451.526 280.238 452.033 279.736 452.579 279.278L453.26 278.708C456.866 275.688 461.299 273.826 465.98 273.366L477.304 272.251H497.127C506.097 272.251 514.833 269.384 522.058 264.067C524.143 262.533 526.082 260.809 527.85 258.918L533.271 253.122C533.867 252.485 534.404 251.795 534.876 251.061C542.16 239.735 559.719 244.893 559.719 258.36V281.542Z" stroke="white"/>
<path d="M592.281 233.822C592.281 222.608 601.371 213.517 612.585 213.517H691.219C702.12 213.517 708.013 226.293 700.936 234.585C700.474 235.126 699.967 235.629 699.421 236.086L698.74 236.656C695.134 239.676 690.701 241.538 686.02 241.999L674.696 243.113H654.873C645.903 243.113 637.167 245.981 629.942 251.297C627.857 252.831 625.918 254.555 624.15 256.446L618.729 262.243C618.133 262.88 617.596 263.569 617.124 264.303C609.84 275.63 592.281 270.471 592.281 257.004V233.822Z" stroke="white"/>
<path d="M703.719 281.542C703.719 292.756 694.629 301.847 683.415 301.847H604.781C593.88 301.847 587.987 289.071 595.064 280.78C595.526 280.238 596.033 279.736 596.579 279.278L597.26 278.708C600.866 275.688 605.299 273.826 609.98 273.366L621.304 272.251H641.127C650.097 272.251 658.833 269.384 666.058 264.067C668.143 262.533 670.082 260.809 671.85 258.918L677.271 253.122C677.867 252.485 678.404 251.795 678.876 251.061C686.16 239.735 703.719 244.893 703.719 258.36V281.542Z" stroke="white"/>
<path d="M736.281 233.822C736.281 222.608 745.371 213.517 756.585 213.517H835.219C846.12 213.517 852.013 226.293 844.936 234.585C844.474 235.126 843.967 235.629 843.421 236.086L842.74 236.656C839.134 239.676 834.701 241.538 830.02 241.999L818.696 243.113H798.873C789.903 243.113 781.167 245.981 773.942 251.297C771.857 252.831 769.918 254.555 768.15 256.446L762.729 262.243C762.133 262.88 761.596 263.569 761.124 264.303C753.84 275.63 736.281 270.471 736.281 257.004V233.822Z" stroke="white"/>
<path d="M847.719 281.542C847.719 292.756 838.629 301.847 827.415 301.847H748.781C737.88 301.847 731.987 289.071 739.064 280.78C739.526 280.238 740.033 279.736 740.579 279.278L741.26 278.708C744.866 275.688 749.299 273.826 753.98 273.366L765.304 272.251H785.127C794.097 272.251 802.833 269.384 810.058 264.067C812.143 262.533 814.082 260.809 815.85 258.918L821.271 253.122C821.867 252.485 822.404 251.795 822.876 251.061C830.16 239.735 847.719 244.893 847.719 258.36V281.542Z" stroke="white"/>
<path d="M880.281 233.822C880.281 222.608 889.371 213.517 900.585 213.517H979.219C990.12 213.517 996.013 226.293 988.936 234.585C988.474 235.126 987.967 235.629 987.421 236.086L986.74 236.656C983.134 239.676 978.701 241.538 974.02 241.999L962.696 243.113H942.873C933.903 243.113 925.167 245.981 917.942 251.297C915.857 252.831 913.918 254.555 912.15 256.446L906.729 262.243C906.133 262.88 905.596 263.569 905.124 264.303C897.84 275.63 880.281 270.471 880.281 257.004V233.822Z" stroke="white"/>
<path d="M991.719 281.542C991.719 292.756 982.629 301.847 971.415 301.847H892.781C881.88 301.847 875.987 289.071 883.064 280.78C883.526 280.238 884.033 279.736 884.579 279.278L885.26 278.708C888.866 275.688 893.299 273.826 897.98 273.366L909.304 272.251H929.127C938.097 272.251 946.833 269.384 954.058 264.067C956.143 262.533 958.082 260.809 959.85 258.918L965.271 253.122C965.867 252.485 966.404 251.795 966.876 251.061C974.16 239.735 991.719 244.893 991.719 258.36V281.542Z" stroke="white"/>
<path d="M1024.28 233.822C1024.28 222.608 1033.37 213.517 1044.59 213.517H1123.22C1134.12 213.517 1140.01 226.293 1132.94 234.585C1132.47 235.126 1131.97 235.629 1131.42 236.086L1130.74 236.656C1127.13 239.676 1122.7 241.538 1118.02 241.999L1106.7 243.113H1086.87C1077.9 243.113 1069.17 245.981 1061.94 251.297C1059.86 252.831 1057.92 254.555 1056.15 256.446L1050.73 262.243C1050.13 262.88 1049.6 263.569 1049.12 264.303C1041.84 275.63 1024.28 270.471 1024.28 257.004V233.822Z" stroke="white"/>
<path d="M1135.72 281.542C1135.72 292.756 1126.63 301.847 1115.41 301.847H1036.78C1025.88 301.847 1019.99 289.071 1027.06 280.78C1027.53 280.238 1028.03 279.736 1028.58 279.278L1029.26 278.708C1032.87 275.688 1037.3 273.826 1041.98 273.366L1053.3 272.251H1073.13C1082.1 272.251 1090.83 269.384 1098.06 264.067C1100.14 262.533 1102.08 260.809 1103.85 258.918L1109.27 253.122C1109.87 252.485 1110.4 251.795 1110.88 251.061C1118.16 239.735 1135.72 244.893 1135.72 258.36V281.542Z" stroke="white"/>
<path d="M1168.28 233.822C1168.28 222.608 1177.37 213.517 1188.59 213.517H1267.22C1278.12 213.517 1284.01 226.293 1276.94 234.585C1276.47 235.126 1275.97 235.629 1275.42 236.086L1274.74 236.656C1271.13 239.676 1266.7 241.538 1262.02 241.999L1250.7 243.113H1230.87C1221.9 243.113 1213.17 245.981 1205.94 251.297C1203.86 252.831 1201.92 254.555 1200.15 256.446L1194.73 262.243C1194.13 262.88 1193.6 263.569 1193.12 264.303C1185.84 275.63 1168.28 270.471 1168.28 257.004V233.822Z" stroke="white"/>
<path d="M1279.72 281.542C1279.72 292.756 1270.63 301.847 1259.41 301.847H1180.78C1169.88 301.847 1163.99 289.071 1171.06 280.78C1171.53 280.238 1172.03 279.736 1172.58 279.278L1173.26 278.708C1176.87 275.688 1181.3 273.826 1185.98 273.366L1197.3 272.251H1217.13C1226.1 272.251 1234.83 269.384 1242.06 264.067C1244.14 262.533 1246.08 260.809 1247.85 258.918L1253.27 253.122C1253.87 252.485 1254.4 251.795 1254.88 251.061C1262.16 239.735 1279.72 244.893 1279.72 258.36V281.542Z" stroke="white"/>
<path d="M1312.28 233.822C1312.28 222.608 1321.37 213.517 1332.59 213.517H1411.22C1422.12 213.517 1428.01 226.293 1420.94 234.585C1420.47 235.126 1419.97 235.629 1419.42 236.086L1418.74 236.656C1415.13 239.676 1410.7 241.538 1406.02 241.999L1394.7 243.113H1374.87C1365.9 243.113 1357.17 245.981 1349.94 251.297C1347.86 252.831 1345.92 254.555 1344.15 256.446L1338.73 262.243C1338.13 262.88 1337.6 263.569 1337.12 264.303C1329.84 275.63 1312.28 270.471 1312.28 257.004V233.822Z" stroke="white"/>
<path d="M1423.72 281.542C1423.72 292.756 1414.63 301.847 1403.41 301.847H1324.78C1313.88 301.847 1307.99 289.071 1315.06 280.78C1315.53 280.238 1316.03 279.736 1316.58 279.278L1317.26 278.708C1320.87 275.688 1325.3 273.826 1329.98 273.366L1341.3 272.251H1361.13C1370.1 272.251 1378.83 269.384 1386.06 264.067C1388.14 262.533 1390.08 260.809 1391.85 258.918L1397.27 253.122C1397.87 252.485 1398.4 251.795 1398.88 251.061C1406.16 239.735 1423.72 244.893 1423.72 258.36V281.542Z" stroke="white"/>
<path d="M16.2808 339.185C16.2808 327.971 25.3714 318.88 36.5853 318.88H115.219C126.12 318.88 132.013 331.656 124.936 339.948C124.474 340.489 123.967 340.991 123.421 341.449L122.74 342.019C119.134 345.039 114.701 346.901 110.02 347.361L98.6962 348.476H78.873C69.9027 348.476 61.1674 351.343 53.9424 356.66C51.8573 358.194 49.9183 359.918 48.15 361.809L42.729 367.605C42.1332 368.243 41.5961 368.932 41.1243 369.666C33.8405 380.992 16.2808 375.834 16.2808 362.367V339.185Z" stroke="white"/>
<path d="M127.719 386.906C127.719 398.12 118.629 407.21 107.415 407.21H28.7808C17.8796 407.21 11.9872 394.435 19.0639 386.143C19.5262 385.601 20.033 385.099 20.579 384.642L21.26 384.071C24.8662 381.052 29.2993 379.19 33.9803 378.729L45.3038 377.614H65.127C74.0973 377.614 82.8326 374.747 90.0576 369.43C92.1427 367.896 94.0817 366.173 95.85 364.282L101.271 358.485C101.867 357.848 102.404 357.158 102.876 356.425C110.16 345.098 127.719 350.257 127.719 363.723V386.906Z" stroke="white"/>
<path d="M160.281 339.185C160.281 327.971 169.371 318.88 180.585 318.88H259.219C270.12 318.88 276.013 331.656 268.936 339.948C268.474 340.489 267.967 340.991 267.421 341.449L266.74 342.019C263.134 345.039 258.701 346.901 254.02 347.361L242.696 348.476H222.873C213.903 348.476 205.167 351.343 197.942 356.66C195.857 358.194 193.918 359.918 192.15 361.809L186.729 367.605C186.133 368.243 185.596 368.932 185.124 369.666C177.84 380.992 160.281 375.834 160.281 362.367V339.185Z" stroke="white"/>
<path d="M271.719 386.906C271.719 398.12 262.629 407.21 251.415 407.21H172.781C161.88 407.21 155.987 394.435 163.064 386.143C163.526 385.601 164.033 385.099 164.579 384.642L165.26 384.071C168.866 381.052 173.299 379.19 177.98 378.729L189.304 377.614H209.127C218.097 377.614 226.833 374.747 234.058 369.43C236.143 367.896 238.082 366.173 239.85 364.282L245.271 358.485C245.867 357.848 246.404 357.158 246.876 356.425C254.16 345.098 271.719 350.257 271.719 363.723V386.906Z" stroke="white"/>
<path d="M304.281 339.185C304.281 327.971 313.371 318.88 324.585 318.88H403.219C414.12 318.88 420.013 331.656 412.936 339.948C412.474 340.489 411.967 340.991 411.421 341.449L410.74 342.019C407.134 345.039 402.701 346.901 398.02 347.361L386.696 348.476H366.873C357.903 348.476 349.167 351.343 341.942 356.66C339.857 358.194 337.918 359.918 336.15 361.809L330.729 367.605C330.133 368.243 329.596 368.932 329.124 369.666C321.84 380.992 304.281 375.834 304.281 362.367V339.185Z" stroke="white"/>
<path d="M415.719 386.906C415.719 398.12 406.629 407.21 395.415 407.21H316.781C305.88 407.21 299.987 394.435 307.064 386.143C307.526 385.601 308.033 385.099 308.579 384.642L309.26 384.071C312.866 381.052 317.299 379.19 321.98 378.729L333.304 377.614H353.127C362.097 377.614 370.833 374.747 378.058 369.43C380.143 367.896 382.082 366.173 383.85 364.282L389.271 358.485C389.867 357.848 390.404 357.158 390.876 356.425C398.16 345.098 415.719 350.257 415.719 363.723V386.906Z" stroke="white"/>
<path d="M448.281 339.185C448.281 327.971 457.371 318.88 468.585 318.88H547.219C558.12 318.88 564.013 331.656 556.936 339.948C556.474 340.489 555.967 340.991 555.421 341.449L554.74 342.019C551.134 345.039 546.701 346.901 542.02 347.361L530.696 348.476H510.873C501.903 348.476 493.167 351.343 485.942 356.66C483.857 358.194 481.918 359.918 480.15 361.809L474.729 367.605C474.133 368.243 473.596 368.932 473.124 369.666C465.84 380.992 448.281 375.834 448.281 362.367V339.185Z" stroke="white"/>
<path d="M559.719 386.906C559.719 398.12 550.629 407.21 539.415 407.21H460.781C449.88 407.21 443.987 394.435 451.064 386.143C451.526 385.601 452.033 385.099 452.579 384.642L453.26 384.071C456.866 381.052 461.299 379.19 465.98 378.729L477.304 377.614H497.127C506.097 377.614 514.833 374.747 522.058 369.43C524.143 367.896 526.082 366.173 527.85 364.282L533.271 358.485C533.867 357.848 534.404 357.158 534.876 356.425C542.16 345.098 559.719 350.257 559.719 363.723V386.906Z" stroke="white"/>
<path d="M592.281 339.185C592.281 327.971 601.371 318.88 612.585 318.88H691.219C702.12 318.88 708.013 331.656 700.936 339.948C700.474 340.489 699.967 340.991 699.421 341.449L698.74 342.019C695.134 345.039 690.701 346.901 686.02 347.361L674.696 348.476H654.873C645.903 348.476 637.167 351.343 629.942 356.66C627.857 358.194 625.918 359.918 624.15 361.809L618.729 367.605C618.133 368.243 617.596 368.932 617.124 369.666C609.84 380.992 592.281 375.834 592.281 362.367V339.185Z" stroke="white"/>
<path d="M703.719 386.906C703.719 398.12 694.629 407.21 683.415 407.21H604.781C593.88 407.21 587.987 394.435 595.064 386.143C595.526 385.601 596.033 385.099 596.579 384.642L597.26 384.071C600.866 381.052 605.299 379.19 609.98 378.729L621.304 377.614H641.127C650.097 377.614 658.833 374.747 666.058 369.43C668.143 367.896 670.082 366.173 671.85 364.282L677.271 358.485C677.867 357.848 678.404 357.158 678.876 356.425C686.16 345.098 703.719 350.257 703.719 363.723V386.906Z" stroke="white"/>
<path d="M736.281 339.185C736.281 327.971 745.371 318.88 756.585 318.88H835.219C846.12 318.88 852.013 331.656 844.936 339.948C844.474 340.489 843.967 340.991 843.421 341.449L842.74 342.019C839.134 345.039 834.701 346.901 830.02 347.361L818.696 348.476H798.873C789.903 348.476 781.167 351.343 773.942 356.66C771.857 358.194 769.918 359.918 768.15 361.809L762.729 367.605C762.133 368.243 761.596 368.932 761.124 369.666C753.84 380.992 736.281 375.834 736.281 362.367V339.185Z" stroke="white"/>
<path d="M847.719 386.906C847.719 398.12 838.629 407.21 827.415 407.21H748.781C737.88 407.21 731.987 394.435 739.064 386.143C739.526 385.601 740.033 385.099 740.579 384.642L741.26 384.071C744.866 381.052 749.299 379.19 753.98 378.729L765.304 377.614H785.127C794.097 377.614 802.833 374.747 810.058 369.43C812.143 367.896 814.082 366.173 815.85 364.282L821.271 358.485C821.867 357.848 822.404 357.158 822.876 356.425C830.16 345.098 847.719 350.257 847.719 363.723V386.906Z" stroke="white"/>
<path d="M880.281 339.185C880.281 327.971 889.371 318.88 900.585 318.88H979.219C990.12 318.88 996.013 331.656 988.936 339.948C988.474 340.489 987.967 340.991 987.421 341.449L986.74 342.019C983.134 345.039 978.701 346.901 974.02 347.361L962.696 348.476H942.873C933.903 348.476 925.167 351.343 917.942 356.66C915.857 358.194 913.918 359.918 912.15 361.809L906.729 367.605C906.133 368.243 905.596 368.932 905.124 369.666C897.84 380.992 880.281 375.834 880.281 362.367V339.185Z" stroke="white"/>
<path d="M991.719 386.906C991.719 398.12 982.629 407.21 971.415 407.21H892.781C881.88 407.21 875.987 394.435 883.064 386.143C883.526 385.601 884.033 385.099 884.579 384.642L885.26 384.071C888.866 381.052 893.299 379.19 897.98 378.729L909.304 377.614H929.127C938.097 377.614 946.833 374.747 954.058 369.43C956.143 367.896 958.082 366.173 959.85 364.282L965.271 358.485C965.867 357.848 966.404 357.158 966.876 356.425C974.16 345.098 991.719 350.257 991.719 363.723V386.906Z" stroke="white"/>
<path d="M1024.28 339.185C1024.28 327.971 1033.37 318.88 1044.59 318.88H1123.22C1134.12 318.88 1140.01 331.656 1132.94 339.948C1132.47 340.489 1131.97 340.991 1131.42 341.449L1130.74 342.019C1127.13 345.039 1122.7 346.901 1118.02 347.361L1106.7 348.476H1086.87C1077.9 348.476 1069.17 351.343 1061.94 356.66C1059.86 358.194 1057.92 359.918 1056.15 361.809L1050.73 367.605C1050.13 368.243 1049.6 368.932 1049.12 369.666C1041.84 380.992 1024.28 375.834 1024.28 362.367V339.185Z" stroke="white"/>
<path d="M1135.72 386.906C1135.72 398.12 1126.63 407.21 1115.41 407.21H1036.78C1025.88 407.21 1019.99 394.435 1027.06 386.143C1027.53 385.601 1028.03 385.099 1028.58 384.642L1029.26 384.071C1032.87 381.052 1037.3 379.19 1041.98 378.729L1053.3 377.614H1073.13C1082.1 377.614 1090.83 374.747 1098.06 369.43C1100.14 367.896 1102.08 366.173 1103.85 364.282L1109.27 358.485C1109.87 357.848 1110.4 357.158 1110.88 356.425C1118.16 345.098 1135.72 350.257 1135.72 363.723V386.906Z" stroke="white"/>
<path d="M1168.28 339.185C1168.28 327.971 1177.37 318.88 1188.59 318.88H1267.22C1278.12 318.88 1284.01 331.656 1276.94 339.948C1276.47 340.489 1275.97 340.991 1275.42 341.449L1274.74 342.019C1271.13 345.039 1266.7 346.901 1262.02 347.361L1250.7 348.476H1230.87C1221.9 348.476 1213.17 351.343 1205.94 356.66C1203.86 358.194 1201.92 359.918 1200.15 361.809L1194.73 367.605C1194.13 368.243 1193.6 368.932 1193.12 369.666C1185.84 380.992 1168.28 375.834 1168.28 362.367V339.185Z" stroke="white"/>
<path d="M1279.72 386.905C1279.72 398.119 1270.63 407.209 1259.41 407.209H1180.78C1169.88 407.209 1163.99 394.434 1171.06 386.142C1171.53 385.6 1172.03 385.098 1172.58 384.641L1173.26 384.071C1176.87 381.051 1181.3 379.189 1185.98 378.728L1197.3 377.614H1217.13C1226.1 377.614 1234.83 374.746 1242.06 369.43C1244.14 367.895 1246.08 366.172 1247.85 364.281L1253.27 358.484C1253.87 357.847 1254.4 357.158 1254.88 356.424C1262.16 345.097 1279.72 350.256 1279.72 363.723V386.905Z" stroke="white"/>
<path d="M1312.28 339.185C1312.28 327.971 1321.37 318.88 1332.59 318.88H1411.22C1422.12 318.88 1428.01 331.656 1420.94 339.948C1420.47 340.489 1419.97 340.991 1419.42 341.449L1418.74 342.019C1415.13 345.039 1410.7 346.901 1406.02 347.361L1394.7 348.476H1374.87C1365.9 348.476 1357.17 351.343 1349.94 356.66C1347.86 358.194 1345.92 359.918 1344.15 361.809L1338.73 367.605C1338.13 368.243 1337.6 368.932 1337.12 369.666C1329.84 380.992 1312.28 375.834 1312.28 362.367V339.185Z" stroke="white"/>
<path d="M1423.72 386.906C1423.72 398.12 1414.63 407.21 1403.41 407.21H1324.78C1313.88 407.21 1307.99 394.435 1315.06 386.143C1315.53 385.601 1316.03 385.099 1316.58 384.642L1317.26 384.071C1320.87 381.052 1325.3 379.19 1329.98 378.729L1341.3 377.614H1361.13C1370.1 377.614 1378.83 374.747 1386.06 369.43C1388.14 367.896 1390.08 366.173 1391.85 364.282L1397.27 358.485C1397.87 357.848 1398.4 357.158 1398.88 356.425C1406.16 345.098 1423.72 350.257 1423.72 363.723V386.906Z" stroke="white"/>
</g>
</svg>
